<svg width="207" height="199" viewBox="0 0 207 199" fill="none" xmlns="http://www.w3.org/2000/svg">
<path d="M0.512085 191.872H4.43521C4.43521 193.62 5.87592 194.466 7.46065 194.466C8.92351 194.466 10.3532 193.687 10.3532 192.34C10.3532 190.992 8.71297 190.547 6.76253 190.091C4.04735 189.423 0.75583 188.622 0.75583 184.725C0.75583 181.252 3.29369 179.292 7.28333 179.292C11.273 179.292 13.7665 181.519 13.7665 185.125H9.92092C9.92092 183.567 8.64646 182.832 7.1836 182.832C5.92021 182.832 4.64575 183.367 4.64575 184.558C4.64575 185.839 6.20833 186.217 8.11458 186.673C10.8519 187.374 14.2985 188.232 14.2985 192.284C14.2985 196.336 11.2065 198.095 7.48289 198.095C3.34914 198.095 0.512085 195.758 0.512085 191.872ZM6.95092 174.215H10.9406L8.3694 177.889H5.53235L6.962 174.215H6.95092Z" fill="#007F31"/>
<path d="M40.5411 179.637L35 197.751H31.5429L27.5307 187.597L23.6298 197.751H20.1721L14.498 179.637H18.6206L22.1558 191.672L26.8769 179.826H28.1846L33.0384 191.672L36.4965 179.637H40.5527H40.5411Z" fill="#007F31"/>
<path d="M42.3259 179.637H46.2152V197.751H42.3259V179.637Z" fill="#007F31"/>
<path d="M60.3786 194.31H53.2196L51.9893 197.739H47.8553L54.9045 179.626H58.5723L65.842 197.739H61.6196L60.3678 194.31H60.3786ZM54.4384 190.893H59.1598L56.7884 184.413L54.4384 190.893Z" fill="#007F31"/>
<path d="M78.1661 183.266H73.1679V197.739H69.2777V183.266H64.2795V179.626H78.1661V183.266Z" fill="#007F31"/>
<path d="M100.264 194.11V197.751H86.6661V197.171L94.1688 183.278H87.0982V179.637H99.9652V180.361L92.5286 194.121H100.264V194.11Z" fill="#007F31"/>
<path d="M118.306 188.666C118.306 193.921 114.461 197.739 109.185 197.739H102.38V179.626H109.185C114.482 179.626 118.306 183.434 118.306 188.666ZM114.328 188.666C114.328 185.481 112.188 183.266 109.096 183.266H106.281V194.11H109.096C112.188 194.11 114.328 191.839 114.328 188.666Z" fill="#007F31"/>
<path d="M127.161 191.56H124.667V197.739H120.778V179.626H128.037C131.638 179.626 134.32 182.12 134.32 185.615C134.32 187.987 133.034 189.924 131.039 190.893L135.018 197.739H130.674L127.161 191.56ZM124.667 187.943H127.781C129.411 187.943 130.375 186.962 130.375 185.594C130.375 184.224 129.399 183.245 127.781 183.245H124.667V187.931V187.943Z" fill="#007F31"/>
<path d="M135.894 188.688C135.894 183.311 140.005 179.236 145.491 179.236C150.977 179.236 155.044 183.288 155.044 188.688C155.044 194.088 150.955 198.14 145.491 198.14C140.028 198.14 135.894 194.065 135.894 188.688ZM151.098 188.688C151.098 185.404 148.694 182.932 145.491 182.932C142.288 182.932 139.839 185.426 139.839 188.688C139.839 191.95 142.288 194.444 145.491 194.444C148.694 194.444 151.098 191.973 151.098 188.688Z" fill="#007F31"/>
<path d="M181.287 179.637L175.746 197.751H172.288L168.276 187.597L164.375 197.751H160.918L155.244 179.637H159.366L162.901 191.672L167.622 179.826H168.93L173.784 191.672L177.242 179.637H181.298H181.287Z" fill="#007F31"/>
<path d="M183.071 179.637H186.961V197.751H183.071V179.637Z" fill="#007F31"/>
<path d="M201.124 194.31H193.965L192.735 197.739H188.601L195.649 179.626H199.318L206.588 197.739H202.365L201.113 194.31H201.124ZM195.184 190.893H199.905L197.533 184.413L195.184 190.893Z" fill="#007F31"/>
<path d="M107.146 50.0262C107.146 50.0262 110.105 51.7071 114.582 50.0262C114.006 52.387 108.099 52.8319 107.146 50.0262ZM110.338 54.4132C113.186 54.4132 115.48 52.8875 115.48 50.9842C115.48 49.08 113.175 47.5552 110.338 47.5552C107.501 47.5552 105.196 49.0916 105.196 50.9842C105.196 52.8767 107.489 54.4132 110.338 54.4132Z" fill="#007F31"/>
<path d="M48.4429 101.75C46.3045 99.8137 45.5616 97.0861 46.7473 95.6608C47.8777 94.3029 50.3491 94.5917 52.4214 96.2726L49.7839 98.7553L51.4795 100.036L53.6848 97.5534C55.0929 99.3455 55.4697 101.472 54.4607 102.674C53.2643 104.111 50.5705 103.698 48.4429 101.762" fill="#007F31"/>
<path d="M178.494 56.7398C174.626 55.5927 168.365 56.4726 167.567 57.7973C166.437 59.4674 163.023 65.7021 160.009 65.746C166.58 69.8765 168.454 65.0114 169.905 62.9745C170.78 61.2488 172.598 60.7922 172.454 60.4801C172 59.4118 170.315 60.3913 170.038 60.6254C169.384 61.1815 168.875 61.7717 168.509 61.6273C169.119 57.452 178.018 58.7768 178.483 56.7398" fill="#007F31"/>
<path d="M148.096 53.9791C147.12 52.5314 145.436 52.0417 144.504 53.7118C143.573 55.3594 146.288 57.0296 147.629 58.0422C150.201 56.773 152.207 54.7693 151.663 53.5333C151.11 52.2973 148.982 52.3977 148.096 53.9791Z" fill="#007F31"/>
<path d="M73.6107 41.6766C71.7384 41.7878 74.1098 38.2252 72.7134 34.7074C74.9295 36.2546 77.5563 41.4425 73.6107 41.6766ZM71.2947 23.04C67.6598 26.2352 69.8875 31.3786 71.3393 36.077C70.3304 35.3756 69.4223 34.8858 68.8902 34.7854C69.6768 35.5532 68.9009 40.0181 69.7768 42.0551C70.6518 44.093 74.3429 44.9388 75.8277 43.9593C76.1152 43.7808 76.3152 43.5584 76.4366 43.3019C81.8339 39.2943 70.1089 27.649 71.2947 23.0289" fill="#007F31"/>
<path d="M60.6554 49.5482C60.6 49.7374 60.567 49.9374 60.567 50.1491C60.567 50.5501 60.667 50.9393 60.8108 51.2846C60.0134 51.7071 59.1268 52.0085 58.8268 51.4739C56.5554 47.4879 58.65 49.5697 60.6554 49.5482ZM61.4536 48.6234C62.85 46.9201 68.0259 46.8089 68.0259 46.8089C64.9224 43.8033 60.434 45.2617 60.8554 48.4898C58.4286 47.5435 55.5688 45.4509 54.1947 46.2636C52.7545 47.1094 55.392 53.8338 59.6804 52.9099C59.7911 53.4113 60.2232 53.7898 60.7447 53.7898C61.3206 53.7674 61.7866 53.2777 61.7866 52.6758C62.9831 53.8113 64.8224 54.4347 66.2081 54.2347C66.3188 54.2347 66.4188 54.2015 66.5295 54.1567C66.4072 55.2482 66.0527 56.5506 65.1777 57.6529C64.0357 58.5436 63.3706 59.289 63.5259 59.6011C63.792 60.1464 66.4188 59.2109 69.4 57.4969C72.3813 55.7819 74.575 53.9566 74.2983 53.4113C74.1322 53.066 73.0125 53.3216 71.45 53.9898C70.3527 53.9791 69.1447 53.7557 68.6241 52.9431C70.4965 51.3959 72.525 48.7795 73.5554 46.6645C74.3313 48.4117 77.0795 47.4323 75.0188 45.8851C74.2313 45.3056 72.625 46.6197 70.0536 47.0986C66.8616 47.6996 63.1384 47.5991 61.4759 48.6351" fill="#007F31"/>
<path d="M98.9009 15.4361C102.736 18.3419 106.437 16.6051 111.324 19.1657C116.2 21.7263 113.673 24.877 121.01 26.8141C110.825 33.7162 111.025 21.8154 106.204 20.5351C103.445 19.2771 95.4214 19.5331 92.6393 16.9391C89.3259 13.8553 93.8366 6.29593 93.8366 6.29593C93.8366 6.29593 94.7232 12.2744 98.9009 15.4361Z" fill="#007F31"/>
<path d="M117.83 35.1639C117.686 34.7522 118.638 34.0732 119.946 33.6723C121.232 33.2597 122.384 33.2714 122.529 33.6831C122.662 34.1064 121.708 34.7746 120.422 35.1747C119.126 35.5873 117.973 35.5873 117.84 35.1639M130.363 43.7476C129.333 41.7439 122.928 38.0027 124.568 37.9023C126.518 37.791 129.887 41.7546 130.363 43.7476ZM114.992 37.6915C115.713 38.7929 116.655 39.2271 117.707 39.3051C119.171 43.0346 117.641 45.2724 118.761 49.7706C119.603 53.1323 133.345 44.6822 133.821 41.1313C134.187 38.4037 128.602 37.3569 125.476 35.8321C125.754 35.0859 125.742 34.3181 125.543 33.6947C125.099 32.2804 122.496 31.8351 119.713 32.7146C116.943 33.5943 114.183 36.4555 115.004 37.6915" fill="#007F31"/>
<path d="M121.597 141.551C129.288 144.913 120.301 153.296 114.904 151.036C110.593 149.232 112.598 145.369 115.99 144.145C119.381 142.909 121.929 144.968 120.456 146.227C118.993 147.485 117.63 146.839 116.921 144.635C114.76 145.949 114.748 148.453 116.311 149.121C118.827 150.591 125.797 145.369 120.079 142.976C115.17 140.928 101.25 148.453 111.224 152.784C119.791 156.491 125.144 149.678 128.945 147.162C132.746 144.657 136.426 150.513 135.838 157.438C128.225 153.375 116.212 159.575 109.54 155.901C98.6349 149.878 113.896 138.178 121.597 141.551Z" fill="#007F31"/>
<path d="M85.8348 50.7393C84.3937 49.3921 85.7125 46.2967 81.3241 43.4803C86.3553 42.3448 90.1125 43.3915 91.3866 45.1836C94.3795 49.3365 88.1402 52.8767 85.8241 50.7393" fill="#007F31"/>
<path d="M132.159 109.833C132.469 110.78 132.015 111.77 131.117 112.07C130.242 112.36 129.288 111.837 128.979 110.891C128.679 109.955 129.145 108.954 130.02 108.664C130.896 108.375 131.86 108.898 132.159 109.844M128.801 108.007C129.045 108.764 128.701 109.577 128.025 109.789C127.349 110.011 126.596 109.566 126.352 108.809C126.096 108.04 126.44 107.25 127.116 107.028C127.793 106.804 128.546 107.25 128.801 108.007ZM125.454 110.367C126.174 110.145 126.939 110.535 127.171 111.247C127.416 111.959 127.017 112.739 126.307 112.973C125.598 113.206 124.822 112.817 124.589 112.093C124.346 111.381 124.734 110.59 125.443 110.356M135.628 122.258C135.904 119.607 136.58 116.334 133.799 112.16C138.941 113.184 142.033 110.846 144.338 111.86C142.31 107.306 138.62 105.29 134.187 106.972C135.063 103.91 135.705 101.316 134.907 98.566C132.447 100.894 129 102.229 128.258 105.691C127.227 103.476 129.544 95.494 121.929 93.3898C122.085 98.6441 117.686 104.634 124.046 109.054C114.338 110.233 117.63 120.253 117.364 121.345C120.301 120.154 125.254 116.992 127.249 115.444C128.302 118.661 134.674 119.006 135.628 122.246" fill="#007F31"/>
<path d="M77.3455 125.063C76.6366 123.215 78.8973 123.838 79.1518 125.175C79.4178 126.521 77.8446 126.387 77.3455 125.063ZM70.0535 116.824C67.3937 126.521 75.0294 123.95 76.0491 124.873C67.2723 123.816 69.1893 131.542 71.9821 133.658C77.5232 137.855 76.2598 129.761 77.2241 128.815C78.6759 133.068 81.0357 133.702 82.4437 133.524C84.2169 133.301 85.9348 132.634 85.9125 131.999C85.8794 130.875 82.5321 126.889 81.0026 126.265C82.9759 126.71 90.733 128.392 87.8294 124.194C84.4714 119.352 81.7339 120.61 79.6839 123.549C80.0723 122.647 84.8151 116.735 82.7982 115.689C80.7812 114.664 74.5527 112.739 77.3902 122.191C76.4259 120.921 71.2946 112.405 70.0759 116.813" fill="#007F31"/>
<path d="M127.15 57.5856C125.687 56.2833 129.466 55.5595 130.12 56.6394C130.785 57.7193 128.191 58.5095 127.15 57.5856ZM125.754 57.6637C116.932 60.3357 122.628 64.5549 126.995 64.032C128.823 63.8203 129.776 60.4801 129.122 59.2226C132.347 65.3899 142.465 58.688 131.494 56.5838C133.279 56.9174 137.29 55.1361 137.057 53.823C136.758 52.0417 134.863 47.3991 129.677 55.3254C130.02 54.5683 132.913 49.6594 130.519 49.793C128.113 49.9374 121.609 52.3314 126.928 55.3702C125.664 54.9253 120.534 53.3548 120.002 54.9809C118.638 59.1221 124.49 57.4744 125.754 57.6529" fill="#007F31"/>
<path d="M48.0777 47.2879C48.9304 48.1669 49.2858 49.2028 48.8974 49.5814C48.4983 49.9599 47.4902 49.5482 46.6474 48.6683C45.8054 47.7884 45.4402 46.7533 45.8384 46.3748C46.2376 45.9963 47.2349 46.3972 48.0884 47.2879M52.9867 57.1623C54.1724 56.2609 54.4161 54.5683 53.5295 53.3772L48.3768 46.4752C47.4902 45.2841 45.8054 45.05 44.6197 45.9299C43.4224 46.8313 43.1786 48.5239 44.0768 49.7033L49.2188 56.6062C50.1161 57.8081 51.7902 58.0422 52.9867 57.1515" fill="#007F31"/>
<path d="M130.929 92.5323C131.549 91.586 132.403 91.0515 132.824 91.3187C133.245 91.6085 133.09 92.5987 132.469 93.545C131.848 94.4921 130.996 95.0375 130.563 94.7478C130.142 94.4697 130.297 93.4678 130.929 92.5215M138.808 86.0636C137.755 85.1738 136.193 85.2958 135.296 86.3425L130.131 92.4211C129.233 93.4678 129.366 95.0482 130.408 95.9389C131.461 96.8412 133.034 96.7183 133.921 95.6608L139.074 89.5823C139.961 88.5355 139.839 86.9542 138.797 86.0636" fill="#007F31"/>
<path d="M81.0027 0.517914C107.678 5.65022 68.0474 35.8429 70.076 8.82315C75.6947 21.9601 90.8215 9.2796 81.0027 0.517914Z" fill="#007F31"/>
<path d="M70.3643 0.462219C77.667 0.762874 82.5875 1.364 80.5045 6.7635C78.4205 12.1519 67.8259 11.7066 70.3643 0.462219Z" fill="#007F31"/>
<path d="M126.44 10.1034C126.44 10.1034 128.092 5.46096 133.001 5.0045C132.413 8.44463 131.505 9.50222 126.44 10.1034ZM132.214 11.9849C130.619 13.7217 129.732 13.9889 126.64 12.4748C126.64 12.4748 129.266 10.4375 132.214 11.9849ZM118.761 5.67254C119.392 5.67254 119.913 6.14012 119.913 6.73013C119.913 7.32022 119.392 7.7878 118.761 7.7878C118.129 7.7878 117.596 7.30901 117.596 6.73013C117.596 6.15124 118.118 5.67254 118.761 5.67254ZM132.292 31.8908C132.292 31.8908 130.286 28.8626 131.848 25.4893C131.848 25.4893 135.206 29.653 132.292 31.8908ZM124.812 15.0465C138.054 24.5541 137.334 5.7504 135.838 0.963241C119.758 -0.829207 125.588 8.43351 123.913 12.7086C122.805 9.24623 121.886 5.75039 119.969 5.07132C116.677 3.90233 116.533 6.41844 112.211 6.57424C117.785 8.65613 117.663 11.072 116.932 13.7217C113.519 9.96988 108.177 7.58734 101.229 8.90109C103.09 16.093 110.593 18.1861 116.222 16.2488C115.868 17.8075 115.813 19.444 116.988 21.114C119.204 24.2869 123.626 23.8527 126.141 23.7971C122.551 26.5691 124.357 30.5437 124.357 30.5437C127.238 29.4971 128.746 27.3819 129.477 25.801C129.377 27.8272 128.302 31.3229 134.73 35.9433C137.124 17.6628 132.624 21.4368 128.369 20.0119C126.651 19.3105 125.543 17.2731 124.679 14.924L124.8 15.0465H124.812Z" fill="#007F31"/>
<path d="M99.8983 6.06218C95.4545 6.14012 93.7813 1.86503 87.8188 0.662677C108.099 2.46616 118.982 -3.37868 122.562 4.55917C120.223 1.19698 109.363 5.90629 99.8983 6.06218Z" fill="#007F31"/>
<path d="M94.4348 44.4823C91.6089 30.5548 82.1223 28.6066 86.4884 20.3569C89.2589 26.1795 103.378 26.8364 94.4348 44.4823Z" fill="#007F31"/>
<path d="M160.763 97.4305C161.172 98.0324 160.353 99.2459 158.956 100.147C157.56 101.049 156.108 101.294 155.72 100.693C155.321 100.092 156.13 98.8782 157.515 97.9768C158.901 97.0744 160.353 96.8296 160.751 97.4305M154.778 90.7286C154.778 90.7286 150.633 92.8884 149.026 96.295L145.28 90.8846C145.28 90.8846 148.815 84.2383 152.517 85.8079L154.778 90.7286ZM158.679 105.736C161.35 106.315 162.635 102.964 160.707 100.503C161.915 99.2459 162.691 97.6314 162.546 95.9837C162.247 92.9108 159.843 92.7996 157.449 93.9907C157.659 91.7977 159.466 89.3598 158.679 87.4C158.136 86.0528 153.891 81.9116 151.176 81.2658C148.461 80.6425 142.688 84.3163 142.244 87.4556C141.789 90.5842 146.71 97.687 148.151 98.4997C149.359 99.1787 151.653 98.0539 152.916 98.3885C152.417 99.4459 152.318 100.493 152.838 101.349C153.869 103.031 155.787 103.231 157.648 102.541C157.038 104.144 156.662 105.28 158.69 105.725" fill="#007F31"/>
<path d="M149.171 91.0631L148.006 92.4094L147.175 91.029L148.317 89.9276L147.707 88.5912L149.171 87.7453L149.691 88.7024L150.811 87.6673L151.387 89.6486L150.622 90.0603L151.642 91.2075L150.234 92.3206L149.171 91.0631Z" fill="#007F31"/>
<path d="M71.6054 153.453C70.6965 148.999 71.5384 143.232 74.7304 139.681C73.0349 143.956 72.3697 148.899 71.6054 153.453ZM82.7983 140.371C78.775 144.089 75.5063 149.099 72.7358 153.786C73.9322 148.531 77.7447 142.787 82.7983 140.371ZM88.0733 145.447C83.2081 147.619 78.2438 150.635 74.1875 154.054C77.0134 149.545 82.7429 146.038 88.0733 145.447ZM87.6304 152.149C83.2974 152.706 78.6983 153.642 74.4867 154.766C77.9884 152.161 83.3634 151.069 87.6304 152.149ZM72.9242 138.657C72.9242 138.657 70.4634 138.745 70.109 140.304C69.0563 144.902 69.267 155.033 70.109 156.068C70.7849 156.892 78.0884 157.226 84.6045 156.391C87.1867 156.068 88.55 152.807 88.5393 152.573C88.5393 152.573 91.2545 150.814 90.0125 148.453C90.0125 148.453 91.6313 145.76 89.0706 144.045C89.0706 144.045 89.8027 140.928 86.0233 140.416C86.0233 140.416 85.2697 136.997 81.7786 138.155C81.7786 138.155 80.5483 135.394 77.3349 137.254C77.3349 137.254 74.7304 135.306 72.9242 138.657Z" fill="#007F31"/>
<path d="M124.324 130.251C125.731 125.786 129.255 126.432 129.255 126.432L127.538 130.908L124.324 130.251ZM123.681 135.384L126.407 136.118C126.407 136.118 124.589 139.001 124.689 139.836C124.789 140.671 128.213 143.744 128.213 143.744C128.213 143.744 134.054 143.366 135.163 143.187C136.281 143.01 132.148 139.001 132.148 139.001L130.541 138.445L131.039 137.421L134.065 138.912L135.572 134.058L133.355 132.566L135.771 125.864C135.771 125.864 128.723 119.964 126.706 119.319L121.331 122.469L117.608 132.801L112.676 131.899C112.676 131.899 111.867 137.431 113.275 139.391L121.974 138.812L123.67 135.372L123.681 135.384Z" fill="#007F31"/>
<path d="M106.791 157.014C98.2911 153.408 95.6536 158.585 88.0732 156.681C93.4375 152.283 96.4741 142.487 106.791 157.014Z" fill="#007F31"/>
<path d="M135.761 44.6042C142.92 47.6439 145.137 43.2794 151.52 44.8832C147.009 48.5902 144.449 56.8286 135.761 44.6042Z" fill="#007F31"/>
<path d="M122.163 81.5439C119.68 81.8668 117.852 81.4102 117.608 79.5177C117.63 79.3401 117.63 79.1723 117.619 79.0055C118.705 76.7237 121.863 77.4691 122.163 81.5439ZM112.864 78.7607C112.654 80.6532 113.984 83.2472 118.084 84.6724C119.248 85.0841 120.467 85.3182 121.708 85.4294C121.188 87.3776 120.213 89.6935 118.594 92.4094C120.401 90.6066 123.604 90.5725 126.884 91.6973C128.08 89.1697 128.524 86.921 128.424 84.9621C134.187 83.8042 138.953 81.1546 138.953 81.1546C136.47 78.5714 138.521 76.3784 137.689 75.5209C135.439 76.7237 131.051 78.9051 126.962 80.3079C123.737 75.2985 116.134 74.0849 113.419 77.2798C112.942 77.8476 112.787 78.3265 112.854 78.7499" fill="#007F31"/>
<path d="M79.1518 22.8396C80.6813 32.0912 96.6286 35.4536 79.5179 41.5205C84.4384 33.4274 70.8741 29.5974 79.1518 22.8396Z" fill="#007F31"/>
<path d="M94.025 90.1832C95.0777 96.5847 106.115 98.9114 94.2688 103.109C97.6822 97.5085 88.2839 94.859 94.025 90.1832Z" fill="#007F31"/>
<path d="M38.5465 51.6963C38.0036 54.023 37.7268 56.2385 39.2 58.7104C40.6634 61.1707 45.5509 64.7002 44.1322 68.7185C38.2697 66.3362 34.3795 64.0759 31.7974 61.9161C35.3768 63.6535 38.7465 64.1988 40.109 63.9764C39.4107 61.5932 35.8866 57.9086 30.6563 57.1623C37.2947 59.6119 37.6161 62.6955 37.6161 62.6955C34.3241 62.4839 31.1438 60.7591 29.6032 59.7904C29.2153 59.3338 28.8607 58.8773 28.5836 58.4207C26.4225 55.0805 24.3058 45.5514 25.7354 45.607C31.609 45.8295 36.7849 43.8921 40.5527 48.6907C42.8465 51.6183 43.6107 54.9137 45.817 57.5632C43.1125 58.3203 40.2197 56.8843 38.5357 51.6856" fill="#007F31"/>
<path d="M59.9688 66.5255L56.6992 61.1035C56.134 60.1689 56.5554 58.8773 57.6304 58.2207C58.7161 57.5749 60.0465 57.7974 60.6117 58.7329L63.8697 64.154C64.4349 65.0895 64.0251 66.3918 62.9277 67.0376C61.8527 67.6942 60.5233 67.461 59.9688 66.5147" fill="#007F31"/>
<path d="M155.787 71.0012L151.287 66.5479C150.512 65.7792 150.6 64.4329 151.487 63.5198C152.373 62.6175 153.725 62.5063 154.501 63.2857L158.978 67.739C159.754 68.5068 159.676 69.8657 158.779 70.7671C157.903 71.6694 156.551 71.769 155.775 71.0012" fill="#007F31"/>
<path d="M169.639 53.1655L166.37 47.7444C165.805 46.8089 166.226 45.5173 167.301 44.8607C168.387 44.2042 169.717 44.4374 170.271 45.3729L173.53 50.7949C174.095 51.7295 173.684 53.0328 172.598 53.6777C171.523 54.3351 170.194 54.101 169.639 53.1655Z" fill="#007F31"/>
<path d="M45.4402 69.0414C45.4402 69.0414 46.7804 68.1507 50.3385 67.1713C48.9527 66.0133 46.7804 66.3694 45.451 64.4993C48.1992 64.2436 51.8456 64.8894 55.2813 70.5222C55.059 69.7204 54.6045 68.7185 53.9617 67.6502C51.967 64.31 47.3242 62.8964 48.2215 60.5698C54.1286 62.6955 55.4135 67.2601 59.559 70.0101C62.6724 71.7914 69.6322 74.5639 68.9126 79.6513C65.4545 77.0017 62.651 75.755 57.1536 75.8994C55.8349 75.9326 55.8349 73.4059 50.1277 73.0938C51.3242 70.5339 54.084 72.7933 55.2144 72.1807C55.4581 72.0479 55.5135 71.647 55.4027 71.0676C53.3411 69.8881 50.1724 72.2031 48.2438 71.012C49.0081 70.0217 51.2688 69.7428 51.8894 69.0746C50.2054 68.2288 47.5233 70.968 45.4402 69.0638" fill="#007F31"/>
<path d="M62.2402 90.673C62.5286 90.751 62.8393 90.7734 63.1714 90.7061C63.3375 90.673 63.4929 90.6173 63.6482 90.5617C64.3795 93.4894 65.6322 98.3104 66.6625 101.205C65.6098 100.771 64.2357 100.515 62.7393 100.537C61.4536 100.571 60.2902 100.804 59.3705 101.172C60.3679 98.2996 61.542 93.5791 62.2402 90.673ZM83.4304 86.921C83.5411 86.921 83.6518 86.921 83.7732 86.8986C83.9955 86.8547 84.2054 86.7542 84.383 86.643C85.0366 89.3257 86.4777 95.0375 87.6527 98.2997C86.5991 97.8646 85.225 97.609 83.7295 97.6422C82.4438 97.6646 81.2911 97.8987 80.3714 98.2772C81.4688 95.1039 82.7982 89.6603 83.4411 86.9327M57.4197 103.342C57.5634 104.812 60.1795 105.959 63.2598 105.903C66.3518 105.847 68.7241 104.601 68.5911 103.131C68.5688 102.92 68.4911 102.708 68.3688 102.507C68.2697 99.9581 65.7536 94.0239 64.2134 90.6173C66.6179 90.8183 68.8125 87.6225 70.9179 86.5757C71.3616 87.0664 71.9045 87.3776 72.4473 87.4888C71.583 92.4659 70.1536 99.3679 71.9482 103.253C70.9625 103.576 70.275 104.2 70.275 104.912C70.275 105.29 70.475 105.647 70.8179 105.959C66.2857 106.404 62.8607 108.03 62.8393 109.911C62.817 112.06 67.25 113.73 72.7464 113.64C78.2545 113.551 82.7205 111.737 82.7536 109.577C82.7759 107.884 80.0384 106.493 76.1929 106.014C76.5589 105.703 76.792 105.325 76.792 104.924C76.792 104.077 75.8384 103.354 74.542 103.109C75.2955 101.483 76.858 96.4959 73.8884 87.2664C74.3982 86.9767 74.7964 86.4869 75.0402 85.886C77.5232 86.2753 80.6705 88.7921 82.9313 86.8322C82.9866 86.843 83.0196 86.8547 83.075 86.8771C81.7009 89.9491 78.8304 96.6403 78.6759 99.4791C78.4652 99.7796 78.3545 100.103 78.3982 100.437C78.5429 101.917 81.158 103.064 84.2393 102.997C87.3313 102.931 89.7134 101.684 89.5696 100.214C89.5473 100.003 89.4813 99.7913 89.3482 99.5903C89.2366 96.6852 85.9902 89.393 84.6161 86.443C84.9036 86.1416 85.0589 85.7191 85.0143 85.2958C84.9152 84.5495 84.217 84.049 83.4188 84.1935C82.6429 84.3388 82.0893 85.0617 82.1884 85.8187C82.2223 86.0977 82.3438 86.3425 82.5214 86.5318C80.4491 86.9883 78.0884 84.0822 75.2955 83.6589C75.2848 83.5145 75.2402 83.3701 75.2179 83.2364C74.775 81.2766 73.2232 79.9967 71.7598 80.3635C70.2973 80.742 69.4777 82.6462 69.9313 84.606V84.65C67.7813 85.8187 66.3518 88.5687 64.7232 89.6155C64.867 89.315 64.9339 88.9813 64.9 88.6584C64.767 87.7005 63.8036 87.0771 62.7286 87.2771C61.6536 87.478 60.9 88.4019 61.0107 89.3598C61.0768 89.8603 61.3652 90.2496 61.775 90.5061C60.3125 93.8015 57.8411 99.7464 57.6964 102.396C57.4866 102.696 57.3866 103.019 57.4197 103.354" fill="#007F31"/>
<path d="M115.835 108.664C116.089 108.063 115.214 107.15 113.896 106.615C112.577 106.082 111.302 106.125 111.047 106.727C110.914 107.061 111.125 107.484 111.568 107.907C111.169 108.096 110.671 108.341 110.26 108.787C109.041 110.145 107.978 112.383 108.021 113.306C108.077 114.82 111.734 116.379 113.163 115.733C114.305 114.999 114.826 111.414 114.826 111.436C114.848 111.28 114.871 111.124 114.871 110.98C114.915 110.346 114.594 109.677 114.338 109.132C115.092 109.209 115.679 109.054 115.846 108.664" fill="#007F31"/>
<path d="M155.454 109.777C153.326 110.033 151.53 109.7 151.454 109.032C151.364 108.353 153.027 107.584 155.155 107.328C157.294 107.072 159.078 107.406 159.155 108.085C159.244 108.754 157.593 109.521 155.454 109.789M141.457 103.643C144.216 107.74 150.678 112.427 153.68 112.549C158.003 112.716 162.657 109.867 161.371 108.085C160.396 106.738 154.434 105.948 151.442 107.829C147.63 110.245 145.79 94.8034 141.468 94.8034C139.163 94.8034 138.31 98.9562 141.468 103.643" fill="#007F31"/>
<path d="M93.3483 54.8356C94.0251 49.4809 97.2938 42.7897 99.267 42.3C101.827 41.5322 109.739 39.7733 111.213 32.7035C115.536 46.6421 107.545 46.0519 104.364 47.0762C101.871 47.4995 100.375 49.6145 100.076 49.314C99.067 48.3122 101.106 46.5748 101.516 46.3192C102.525 45.7065 103.478 45.2948 103.5 44.7827C97.7036 44.6939 96.5179 54.6239 93.3268 54.8356" fill="#007F31"/>
<path d="M101.738 38.949C102.857 28.0499 93.6813 26.0571 90.9991 20.6687C98.2688 21.2253 120.379 26.3688 101.738 38.949Z" fill="#007F31"/>
<path d="M154.046 77.7588C154.323 79.985 159.321 82.9799 161.272 84.7504C162.037 81.5663 167.256 74.719 164.463 72.8381C162.314 71.3905 159.71 73.5171 159.876 76.3559C157.216 73.6059 153.78 75.7433 154.036 77.7588" fill="#007F31"/>
<path d="M171.468 68.9858C171.911 69.4648 171.401 70.6335 170.348 71.6022C169.296 72.5816 168.099 72.9718 167.655 72.4928C167.223 72.0139 167.722 70.8452 168.786 69.8765C169.838 68.9078 171.036 68.5068 171.468 68.9858ZM179.68 68.7858C181.088 67.7722 181.42 65.8017 180.4 64.3881C179.392 62.9745 177.43 62.6399 176.022 63.6535L167.855 69.5204C166.437 70.5447 166.115 72.5153 167.123 73.9289C168.121 75.3541 170.094 75.6878 171.513 74.6634L179.68 68.7966V68.7858Z" fill="#007F31"/>
<path d="M180.046 58.5992C179.879 58.5436 179.691 53.7333 177.996 50.2379C176.599 47.3543 173.618 45.651 173.662 45.5954C174.261 44.85 178.25 44.8159 179.603 45.4178C181.264 46.1631 180.943 58.8997 180.046 58.61" fill="#007F31"/>
<path d="M49.4625 109.209C48.0884 108.797 46.9358 108.152 45.9831 107.429C42.7027 103.932 42.1375 98.4324 40.9072 93.0893C41.0849 89.8603 43.2233 88.3463 44.575 87.7121C47.4125 97.9095 61.3206 84.5719 61.4536 79.3401C52.9429 76.8349 36.175 78.8279 44.0652 86.8547C41.5384 87.4108 40.475 88.714 40.142 90.1276C39.234 87.0771 37.9483 84.3495 35.6429 82.5126C44.1429 79.9634 43.5224 74.9863 41.9268 72.9045C39.0563 69.1867 33.2822 69.732 26.5001 60.7805C25.3808 65.2563 24.4832 78.0592 25.6025 81.6999C26.6885 85.2402 32.4179 86.4089 35.1108 82.9135C38.092 86.9103 38.8456 92.3655 39.5331 97.5085C38.0697 96.4959 36.0974 96.8968 34.7893 95.9281C39.5 93.9244 37.6822 89.7267 36.3081 88.758C33.759 86.9434 31.3875 90.907 25.3143 86.5425C25.4806 89.6047 23.53 104.233 34.0358 96.2618C35.5768 98.2431 38.159 98.7113 39.8983 100.114C40.0536 101.16 40.2197 102.196 40.4197 103.165C39.034 102.485 37.7599 103.342 36.275 104.879C33.6929 96.2286 24.6605 102.507 25.2035 112.249C28.9604 111.959 34.4679 112.883 36.8063 111.948C39.0893 111.035 39.167 107.429 36.6849 105.837C37.8599 104.545 39.5215 104.512 40.9625 105.436C42.1706 109.511 44.409 112.327 49.5956 112.282C55.2697 112.638 57.5081 109.945 60.9 112.026C56.8768 109.554 55.5358 109.666 52.7429 109.554C52.4884 109.544 50.8143 109.365 49.4849 109.221L49.4625 109.209ZM54.1393 82.4901C51.9233 84.7836 48.1992 84.8948 45.4956 86.5093C46.8143 83.0803 50.9036 83.3808 54.1393 82.4901ZM35.1224 80.2307C33.6036 75.7433 29.7473 76.1559 29.4369 71.3681C32.2849 75.5433 36.9509 75.0419 35.1224 80.2307ZM28.1735 90.1832C30.7893 92.2874 33.659 91.0514 33.5152 94.7146C31.6759 92.1538 29.304 93.1781 28.1735 90.1832ZM29.3372 110.223C31.9527 108.096 31.3759 105.023 34.9009 105.969C32.0188 107.217 32.4849 109.766 29.3372 110.223Z" fill="#007F31"/>
<path d="M99.8429 130.318C98.5795 136.641 96.2411 135.461 96.2411 135.461C97.9812 131.097 98.3134 129.349 98.3134 129.349L99.8429 130.318ZM92.2179 136.04C92.6946 136.218 93.2268 136.063 93.7143 135.673C94.0134 135.751 94.3795 135.862 94.7786 135.973C94.1134 137.465 93.4259 138.846 92.85 140.037C92.1625 141.629 93.892 143.956 96.7179 145.247C99.5438 146.527 102.392 146.272 103.079 144.69C103.079 144.69 103.666 142.164 104.929 139.302C105.251 139.436 105.562 139.558 105.861 139.692C105.949 140.471 106.348 141.117 106.969 141.35C107.955 141.729 109.141 140.938 109.629 139.603C110.105 138.256 109.695 136.864 108.697 136.497C107.9 136.196 106.979 136.641 106.404 137.521C106.226 137.521 106.027 137.499 105.828 137.487C106.78 135.728 107.988 134.014 109.485 132.867C110.227 132.834 110.748 132.622 110.914 132.221C111.213 131.509 110.36 130.373 108.797 129.193C109.141 129.627 109.285 130.006 109.174 130.285C108.83 131.097 106.393 130.774 103.733 129.572C101.062 128.37 99.2107 126.733 99.5661 125.909C99.6991 125.609 100.109 125.464 100.719 125.464C98.7125 125.007 97.2161 125.107 96.8946 125.842C96.7509 126.198 96.8839 126.666 97.25 127.178C97.0946 129.538 96.4071 131.921 95.5536 134.115C95.3545 134.014 95.1437 133.903 94.933 133.792C95.3875 132.344 95.0554 130.952 94.158 130.596C93.2268 130.25 92.0518 131.186 91.5089 132.689C90.9661 134.181 91.2875 135.695 92.2179 136.051" fill="#007F31"/>
<path d="M107.368 129.049L107.479 129.884C107.479 129.884 104.963 130.006 102.613 128.147C102.613 128.147 103.91 126.889 105.894 127.579C105.894 127.579 110.271 116.635 113.652 119.352C117.264 122.258 107.368 129.049 107.368 129.049Z" fill="#007F31"/>
<path d="M95.2884 122.191C94.9 122.513 93.8697 121.935 92.9938 120.911C92.1188 119.886 91.7197 118.795 92.1072 118.484C92.4955 118.161 93.5259 118.728 94.4018 119.763C95.2884 120.777 95.6866 121.868 95.2884 122.191ZM88.8045 110.334C87.6964 114.264 86.6438 120.654 91.1545 124.696C93.9134 127.144 99.6991 122.748 96.6402 119.084C93.5482 115.377 90.5223 115.277 88.7938 110.346" fill="#007F31"/>
<path d="M132.413 72.9601C132.669 73.8956 128.735 75.2428 128.203 74.1073C127.671 72.9718 132.059 71.7582 132.413 72.9601ZM124.413 70.6667C122.107 73.762 128.003 79.1167 132.79 74.6634C134.852 72.7494 135.462 68.496 132.923 63.6086C130.175 69.097 125.864 68.7185 124.413 70.6667Z" fill="#007F31"/>
<path d="M144.705 66.2806C146.245 69.9769 146.134 72.8606 145.103 76.1891C142.598 70.133 144.705 66.2806 144.705 66.2806ZM143.929 80.8873C160.031 75.7102 144.371 64.0203 143.03 56.8394C134.52 66.0465 143.253 77.5139 143.929 80.8873Z" fill="#007F31"/>
<path d="M175.369 107.851C172.698 108.875 169.695 106.827 169.695 106.827L170.005 101.984C171.036 103.109 176.2 103.91 176.2 103.91L175.379 107.851H175.369ZM172.133 97.609C170.215 97.9543 168.476 98.967 167.522 100.024C166.126 101.573 165.395 108.207 166.725 111.325C167.755 113.774 178.461 112.872 179.27 112.138C180.079 111.391 180.721 104.289 179.27 101.394C178.671 100.181 177.929 99.3015 177.12 98.6997C177.164 98.0655 177.341 97.2637 177.763 96.3291C178.295 96.2394 178.849 96.0833 179.414 95.8608L179.857 91.9538C179.857 91.9538 177.552 89.3813 171.845 91.0514C171.845 91.0514 171.357 92.8444 171.357 95.1711C171.357 95.1711 171.745 95.416 172.41 95.694C172.532 96.0393 172.598 96.6851 172.121 97.6422" fill="#007F31"/>
<path d="M168.72 86.0636C168.254 85.6635 168.398 84.6832 169.085 83.8705C169.75 83.0471 170.692 82.7242 171.169 83.1252C171.646 83.5261 171.479 84.5056 170.803 85.3182C170.127 86.1308 169.185 86.4645 168.708 86.0636M166.459 87.6117C165.65 88.3355 165.804 89.8827 165.483 90.3169C164.43 91.7421 162.879 93.1781 163.888 94.0239C164.896 94.8706 166.027 93.1225 167.213 91.8309C167.578 91.4416 169.085 91.3636 169.65 90.4729C169.971 89.9608 170.116 89.3257 170.182 88.714C171.113 89.2369 172.166 89.2145 172.698 88.5804L179.679 81.0541C180.899 76.991 175.934 73.5952 172.986 77.0905L167.678 84.3719C167.157 84.9953 167.312 86.0196 167.977 86.8547C167.434 86.9991 166.879 87.2439 166.47 87.6117" fill="#007F31"/>
<path d="M102.613 108.186C102.569 106.493 102.503 104.734 102.48 102.941C98.6795 104.623 95.0661 106.37 95.0224 109.833C94.9447 117.214 101.871 118.84 101.871 118.84C101.871 118.84 97.6152 115.968 98.8009 111.492C99.1554 110.134 100.652 109.143 102.624 108.186" fill="#007F31"/>
<path d="M108.996 58.6988C109.385 58.0314 110.204 57.8081 110.87 58.1866C111.523 58.5651 111.767 59.4118 111.412 60.0684C111.047 60.7366 110.204 60.9591 109.551 60.5805C108.886 60.202 108.642 59.3562 109.008 58.6988M79.3071 72.7045C79.0303 90.4173 109.207 86.3865 109.839 94.0795C110.005 95.9945 109.108 97.3973 107.678 98.5553C107.601 100.559 107.534 102.552 107.434 104.5C111.9 102.374 116.2 99.4459 116.189 93.6786C116.167 82.1672 88.2509 85.5738 87.9848 72.5933C87.8071 62.996 99.9759 59.9347 106.68 62.7404C109.518 63.9315 110.448 67.3157 111.446 66.9264C111.446 65.7128 111.557 64.6437 111.656 63.6759C113.851 64.4885 115.857 64.867 116.134 64.3208C117.33 61.9502 111.335 55.0249 107.102 57.4744C97.5821 54.7576 79.5402 56.9291 79.3071 72.7045Z" fill="#007F31"/>
<path d="M119.591 68.5293C110.071 70.0101 98.7572 69.8881 89.7465 68.218C90.9545 72.5153 96.0527 75.877 102.447 76.556C102.447 77.6144 102.447 79.6181 102.47 82.2229C103.511 82.6355 104.564 83.0355 105.617 83.4589C105.994 83.6257 106.393 83.771 106.77 83.9378C106.858 80.1079 106.903 77.3354 106.913 76.5901C113.241 75.9999 118.317 72.7494 119.591 68.5293Z" fill="#007F31"/>
<path d="M102.58 94.4141C102.757 107.083 103.212 121.534 104.309 121.444C105.395 121.345 106.082 106.95 106.481 94.458C106.504 93.7127 106.526 92.9664 106.559 92.2202C106.115 91.9421 105.583 91.6748 104.962 91.3968C104.243 91.0846 103.434 90.7617 102.536 90.4505C102.558 91.7304 102.569 93.0669 102.591 94.4248" fill="#007F31"/>
<path d="M162.99 52.4534C164.254 50.2828 165.372 47.922 163.91 45.7066C162.646 43.7916 158.989 44.8383 158.989 44.8383C158.989 44.8383 155.398 43.5691 154.024 45.4061C152.429 47.5327 153.404 49.9598 154.534 52.2085C155.044 53.222 154.634 54.9253 154.235 56.0824C152.938 59.9016 154.523 61.8946 155.254 60.9922C156.473 59.4899 157.005 55.7379 158.656 55.6707C160.297 55.8375 160.607 59.6235 161.727 61.1932C162.403 62.1278 164.109 60.2469 163.046 56.3497C162.724 55.1702 162.413 53.4445 162.99 52.465V52.4534ZM156.473 50.9949C154.024 50.5384 153.647 46.2967 156.573 45.6626C156.573 45.6626 154.778 47.7444 156.473 50.9949Z" fill="#007F31"/>
<path d="M74.3759 67.0376L71.2286 64.7002L75.1956 59.3222L78.3322 61.6605L74.3643 67.0376H74.3759ZM83.175 51.7852C82.7759 51.4847 82.2107 51.5744 81.9116 51.9744L80.959 53.2777L78.1661 53.5333L70.3857 64.0652L70.3527 64.0984L69.3223 63.3414C68.8456 62.996 68.1804 63.0965 67.8375 63.5754C67.4938 64.0544 67.5938 64.7217 68.0697 65.0671L68.9893 65.7461L68.9563 65.7909L67.5938 67.6278C66.5625 69.0306 66.8509 70.9896 68.2357 72.0255C69.6215 73.0606 71.5831 72.7709 72.6134 71.3681L73.9768 69.5204L74.0322 69.4423L74.8741 70.0657C75.3509 70.411 76.0161 70.3106 76.3598 69.8325C76.7143 69.3536 76.6036 68.6853 76.1375 68.34L75.2072 67.661L82.9866 57.1184L82.4107 54.3235L83.3411 53.0436C83.6402 52.6319 83.5518 52.0749 83.1527 51.7744" fill="#007F31"/>
</svg>
