<svg width="267" height="72" viewBox="0 0 267 72" fill="none" xmlns="http://www.w3.org/2000/svg">
<path d="M31.6239 28.0019C31.6239 28.0019 32.0751 28.2586 32.7668 28.0019C32.6789 28.3578 31.7703 28.4278 31.6239 28.0019ZM32.1161 28.667C32.5499 28.667 32.9074 28.4336 32.9074 28.1478C32.9074 27.862 32.5558 27.6286 32.1161 27.6286C31.6824 27.6286 31.325 27.862 31.325 28.1478C31.325 28.4336 31.6765 28.667 32.1161 28.667Z" fill="#FBF8F7"/>
<path d="M22.6214 35.86C22.2931 35.5683 22.1759 35.1541 22.3634 34.9324C22.5393 34.7282 22.9144 34.7691 23.2309 35.0259L22.8265 35.405L23.0843 35.5975L23.4243 35.2184C23.6412 35.4925 23.6997 35.8134 23.5415 35.9942C23.3599 36.2159 22.9496 36.1575 22.6214 35.86Z" fill="#FBF8F7"/>
<path d="M42.5664 29.0228C41.9745 28.8478 41.0132 28.982 40.8901 29.1862C40.7143 29.4428 40.1927 30.3879 39.7297 30.3938C40.7378 31.0238 41.025 30.2829 41.2477 29.9737C41.3826 29.7113 41.658 29.6412 41.6404 29.5946C41.5701 29.4312 41.3121 29.5829 41.2712 29.6179C41.1716 29.7054 41.0953 29.7929 41.0367 29.7696C41.1305 29.1278 42.4961 29.332 42.5664 29.0228Z" fill="#FBF8F7"/>
<path d="M37.9069 28.6029C37.7545 28.3812 37.4967 28.3111 37.3559 28.562C37.2152 28.8127 37.6314 29.0695 37.8365 29.2211C38.2292 29.0286 38.5398 28.7253 38.4578 28.5386C38.3699 28.3461 38.0416 28.3578 37.9069 28.6029Z" fill="#FBF8F7"/>
<path d="M26.4837 26.7302C26.1965 26.7477 26.5598 26.2051 26.343 25.6742C26.6829 25.9076 27.0873 26.6951 26.4837 26.7302ZM26.1262 23.9008C25.5694 24.385 25.9094 25.1667 26.132 25.8842C25.9738 25.7792 25.8389 25.7034 25.7569 25.6859C25.88 25.8026 25.7569 26.4793 25.8917 26.7885C26.0265 27.0976 26.595 27.226 26.8178 27.0801C26.8646 27.0511 26.8939 27.016 26.9116 26.981C27.7438 26.3684 25.9444 24.6009 26.1262 23.9008Z" fill="#FBF8F7"/>
<path d="M24.4968 27.926C24.4909 27.9553 24.4852 27.9845 24.4852 28.0194C24.4852 28.0778 24.5026 28.1361 24.5202 28.1945C24.3971 28.2586 24.2624 28.3052 24.2155 28.2236C23.8639 27.6169 24.1861 27.9319 24.4968 27.926ZM24.614 27.7861C24.825 27.5294 25.6221 27.5118 25.6221 27.5118C25.1474 27.0569 24.4558 27.2786 24.5202 27.7686C24.1511 27.6227 23.7114 27.3077 23.5004 27.4302C23.2777 27.5586 23.6821 28.5795 24.3386 28.4394C24.3562 28.5152 24.4206 28.5736 24.5026 28.5736C24.5905 28.5736 24.661 28.4978 24.661 28.4044C24.8426 28.5795 25.1239 28.6728 25.3408 28.6436C25.3584 28.6436 25.3701 28.6378 25.3877 28.6319C25.3701 28.7953 25.3173 28.9937 25.1826 29.1628C25.0067 29.297 24.907 29.4137 24.9305 29.4603C24.9716 29.542 25.376 29.402 25.8331 29.1395C26.2903 28.877 26.6244 28.6028 26.5833 28.5211C26.5599 28.4686 26.3841 28.5094 26.1437 28.6086C25.9738 28.6086 25.7921 28.5736 25.7101 28.4511C25.9973 28.2177 26.3079 27.821 26.4661 27.5002C26.5833 27.7628 27.0054 27.6169 26.6888 27.3835C26.5716 27.296 26.3197 27.4943 25.9269 27.5703C25.4404 27.6461 24.872 27.6285 24.614 27.7861Z" fill="#FBF8F7"/>
<path d="M30.3578 22.7458C30.9439 23.1892 31.5125 22.9266 32.2627 23.3116C33.0128 23.7025 32.6202 24.1809 33.7514 24.4725C32.1923 25.5226 32.2216 23.7141 31.4831 23.5157C31.0611 23.3232 29.8303 23.3641 29.4025 22.9675C28.8926 22.5007 29.5842 21.3515 29.5842 21.3515C29.5842 21.3515 29.7189 22.2616 30.3578 22.7458Z" fill="#FBF8F7"/>
<path d="M33.265 25.7443C33.2416 25.6801 33.3881 25.5809 33.5874 25.5168C33.7867 25.4525 33.9625 25.4525 33.9801 25.5168C33.9977 25.5809 33.857 25.6859 33.6577 25.7443C33.4584 25.8084 33.2826 25.8084 33.265 25.7443ZM35.1815 27.0452C35.0234 26.7419 34.0386 26.1701 34.2907 26.1585C34.5955 26.141 35.1113 26.7419 35.1815 27.0452ZM32.8254 26.1235C32.9368 26.2926 33.0834 26.3569 33.2416 26.3684C33.4643 26.9344 33.2298 27.2728 33.4056 27.9611C33.5346 28.4745 35.6446 27.191 35.7149 26.6485C35.7735 26.2343 34.912 26.0767 34.4372 25.8435C34.4782 25.7326 34.4782 25.6159 34.4489 25.5168C34.3786 25.3009 33.9801 25.2368 33.5522 25.365C33.1243 25.5051 32.7023 25.9368 32.8254 26.1235Z" fill="#FBF8F7"/>
<path d="M33.8392 41.9096C35.0174 42.423 33.64 43.6948 32.8135 43.3506C32.1513 43.0764 32.462 42.4871 32.9836 42.3004C33.5051 42.1138 33.8979 42.4288 33.6693 42.6155C33.4466 42.808 33.2356 42.7088 33.1242 42.3763C32.7959 42.5747 32.7901 42.9597 33.0304 43.0589C33.4172 43.2806 34.484 42.4871 33.6106 42.1255C32.8546 41.8163 30.7212 42.9597 32.251 43.613C33.5638 44.179 34.3843 43.1405 34.9704 42.7614C35.5565 42.3821 36.1192 43.2689 36.0254 44.3247C34.859 43.7063 33.0128 44.6515 31.993 44.0915C30.3168 43.1756 32.6612 41.3962 33.8392 41.9096Z" fill="#FBF8F7"/>
<path d="M28.3534 28.1069C28.1307 27.9027 28.3358 27.4302 27.6618 27.0043C28.4354 26.8294 29.0098 26.9927 29.2032 27.2611C29.6662 27.8969 28.7109 28.4336 28.3534 28.1069Z" fill="#FBF8F7"/>
<path d="M35.4628 37.0909C35.5097 37.2368 35.4394 37.3884 35.3046 37.4293C35.1698 37.4701 35.0233 37.3942 34.9764 37.2484C34.9295 37.1084 34.9998 36.9568 35.1347 36.91C35.2635 36.8634 35.416 36.9451 35.4628 37.0909ZM34.947 36.8109C34.9822 36.9276 34.9295 37.0501 34.8299 37.0792C34.7244 37.1142 34.613 37.0443 34.572 36.9276C34.5309 36.8109 34.5837 36.6883 34.6892 36.6534C34.7888 36.6242 34.9061 36.6942 34.947 36.8109ZM34.4312 37.1668C34.5426 37.1317 34.6598 37.19 34.6951 37.3009C34.7303 37.4117 34.6716 37.5284 34.5602 37.5635C34.4488 37.5984 34.3316 37.5401 34.2965 37.4293C34.2613 37.3242 34.3257 37.2017 34.4312 37.1668ZM35.9962 38.9752C36.0372 38.5727 36.1427 38.0768 35.7149 37.4409C36.5002 37.5984 36.975 37.2426 37.3325 37.3942C37.0218 36.7 36.4534 36.3967 35.7734 36.6534C35.9083 36.1866 36.0079 35.7958 35.8848 35.3758C35.5097 35.7317 34.9764 35.93 34.865 36.4608C34.7068 36.1225 35.0642 34.9091 33.8921 34.5941C33.9155 35.3933 33.2415 36.3033 34.2145 36.9742C32.7257 37.1551 33.2298 38.6777 33.1888 38.841C33.64 38.6602 34.402 38.1819 34.7068 37.9426C34.8708 38.4326 35.8497 38.4852 35.9962 38.9752Z" fill="#FBF8F7"/>
<path d="M27.0522 39.4011C26.941 39.121 27.2867 39.2143 27.3277 39.4185C27.3746 39.6227 27.1285 39.6053 27.0522 39.4011ZM25.9386 38.1526C25.5283 39.6285 26.7006 39.2377 26.8588 39.3777C25.5109 39.2201 25.8039 40.3928 26.2316 40.7137C27.0815 41.3496 26.8881 40.1187 27.0347 39.9786C27.2573 40.6262 27.6208 40.7195 27.8318 40.6961C28.1013 40.6611 28.3652 40.5619 28.3652 40.4628C28.3593 40.2936 27.8494 39.6869 27.609 39.5936C27.9138 39.6636 29.1035 39.9145 28.6582 39.2786C28.1424 38.5435 27.7263 38.736 27.4098 39.1794C27.4683 39.0452 28.1951 38.141 27.8845 37.9835C27.5738 37.8259 26.6186 37.5343 27.0522 38.9694C26.9116 38.7769 26.1204 37.4817 25.9386 38.1526Z" fill="#FBF8F7"/>
<path d="M34.6892 29.1512C34.4665 28.9529 35.0467 28.842 35.1463 29.0054C35.2518 29.1687 34.8533 29.2913 34.6892 29.1512ZM34.4782 29.1629C33.1243 29.5712 33.9976 30.213 34.6716 30.1313C34.9529 30.0963 35.0995 29.5888 34.9998 29.4021C35.4921 30.3412 37.0453 29.3203 35.3632 28.9996C35.6387 29.052 36.2541 28.7779 36.2189 28.5795C36.172 28.3111 35.8848 27.6052 35.0877 28.8071C35.1406 28.6904 35.5859 27.9436 35.2167 27.967C34.8474 27.9904 33.8511 28.352 34.6657 28.8128C34.4723 28.7428 33.687 28.5094 33.605 28.7545C33.3881 29.3846 34.2848 29.1337 34.4782 29.1629Z" fill="#FBF8F7"/>
<path d="M22.5627 27.5819C22.6916 27.716 22.7502 27.8736 22.6858 27.9319C22.6272 27.9903 22.4689 27.9261 22.3399 27.7918C22.2111 27.6578 22.1524 27.5002 22.2169 27.4419C22.2814 27.3893 22.4338 27.4477 22.5627 27.5819ZM23.3188 29.087C23.5004 28.9528 23.5415 28.6962 23.4008 28.5094L22.6096 27.4594C22.4748 27.2786 22.2169 27.2435 22.0351 27.3778C21.8535 27.5118 21.8125 27.7744 21.9531 27.9494L22.7445 28.9995C22.8733 29.1862 23.1313 29.2211 23.3188 29.087Z" fill="#FBF8F7"/>
<path d="M35.2693 34.4599C35.3631 34.3141 35.498 34.2324 35.5624 34.2732C35.6269 34.3141 35.6035 34.4657 35.5097 34.6116C35.4159 34.7574 35.2811 34.8391 35.2167 34.7925C35.1521 34.7574 35.1756 34.6058 35.2693 34.4599ZM36.4826 33.4799C36.3244 33.3457 36.0781 33.3632 35.9434 33.5206L35.1521 34.4424C35.0174 34.6 35.035 34.8391 35.1932 34.9791C35.3514 35.1133 35.5976 35.0958 35.7324 34.9382L36.5236 34.0165C36.6585 33.8532 36.6409 33.614 36.4826 33.4799Z" fill="#FBF8F7"/>
<path d="M27.615 20.4763C31.706 21.2582 25.6281 25.8435 25.9387 21.7365C26.8003 23.7374 29.1212 21.8064 27.615 20.4763Z" fill="#FBF8F7"/>
<path d="M25.9855 20.4706C27.105 20.5173 27.8611 20.6106 27.5387 21.4273C27.2163 22.2441 25.5928 22.1741 25.9855 20.4706Z" fill="#FBF8F7"/>
<path d="M34.5836 21.9349C34.5836 21.9349 34.8357 21.229 35.5917 21.1591C35.4979 21.684 35.3631 21.8416 34.5836 21.9349ZM35.4686 22.2207C35.2225 22.4833 35.0877 22.5241 34.613 22.2965C34.613 22.2965 35.0174 21.9873 35.4686 22.2207ZM33.4055 21.2582C33.5051 21.2582 33.5814 21.3282 33.5814 21.4215C33.5814 21.509 33.4994 21.5848 33.4055 21.5848C33.3059 21.5848 33.2297 21.5148 33.2297 21.4215C33.2297 21.334 33.3059 21.2582 33.4055 21.2582ZM35.4803 25.2484C35.4803 25.2484 35.1697 24.7876 35.41 24.2742C35.41 24.2742 35.9258 24.9043 35.4803 25.2484ZM34.3315 22.6875C36.3654 24.1342 36.2541 21.2756 36.0254 20.5465C33.5579 20.2722 34.4546 21.684 34.1968 22.3316C34.0268 21.8065 33.8862 21.2756 33.5932 21.1706C33.0891 20.9956 33.0656 21.3748 32.4033 21.3982C33.259 21.7132 33.2414 22.0807 33.1301 22.4833C32.6084 21.9115 31.7879 21.5499 30.7213 21.7482C31.0084 22.8391 32.1572 23.16 33.0187 22.8683C32.966 23.1074 32.9543 23.3525 33.1359 23.6092C33.4759 24.0934 34.1557 24.0233 34.5367 24.0175C33.9858 24.4375 34.2612 25.0442 34.2612 25.0442C34.7067 24.8868 34.9353 24.5659 35.0466 24.3209C35.0291 24.63 34.8649 25.1609 35.8497 25.8609C36.2188 23.0842 35.5273 23.6558 34.8708 23.44C34.6071 23.335 34.437 23.0258 34.3082 22.6641L34.3315 22.6875Z" fill="#FBF8F7"/>
<path d="M30.5102 21.3223C29.8303 21.334 29.5725 20.6864 28.6581 20.4997C31.7703 20.7739 33.4407 19.8872 33.9858 21.0947C33.6282 20.5814 31.9638 21.2931 30.5102 21.3223Z" fill="#FBF8F7"/>
<path d="M29.6721 27.1561C29.2384 25.0383 27.7848 24.7467 28.453 23.4925C28.8809 24.3792 31.0494 24.4783 29.6721 27.1561Z" fill="#FBF8F7"/>
<path d="M39.8469 35.2067C39.9114 35.3 39.7824 35.4808 39.5714 35.6209C39.3545 35.755 39.1378 35.7958 39.0732 35.7025C39.0147 35.6092 39.1378 35.4284 39.3486 35.2883C39.5655 35.1483 39.7883 35.1133 39.8469 35.2067ZM38.9326 34.1858C38.9326 34.1858 38.2996 34.5125 38.0475 35.0316L37.4732 34.2091C37.4732 34.2091 38.0182 33.1998 38.5809 33.439L38.9326 34.1858ZM39.5304 36.4667C39.9407 36.5543 40.14 36.0468 39.8411 35.6733C40.0286 35.4808 40.1458 35.2359 40.1224 34.985C40.0754 34.5183 39.7062 34.5008 39.3429 34.6816C39.3721 34.3491 39.6535 33.9757 39.5304 33.6782C39.4483 33.4741 38.7978 32.844 38.3817 32.7448C37.9655 32.6515 37.0805 33.2115 37.0101 33.6841C36.9398 34.1566 37.696 35.2359 37.9127 35.3641C38.1004 35.4691 38.4519 35.2942 38.6453 35.3466C38.5692 35.5042 38.5516 35.6675 38.6336 35.7959C38.7919 36.0525 39.085 36.0817 39.3721 35.9767C39.2784 36.2276 39.2198 36.3967 39.5304 36.4667Z" fill="#FBF8F7"/>
<path d="M38.0709 34.2382L37.8893 34.4424L37.7603 34.2324L37.9419 34.0632L37.8482 33.8591L38.0709 33.7307L38.1471 33.8766L38.3229 33.719L38.4109 34.0223L38.2937 34.0808L38.446 34.2557L38.235 34.4307L38.0709 34.2382Z" fill="#FBF8F7"/>
<path d="M26.1732 43.718C26.0324 43.0413 26.1614 42.1663 26.6537 41.6237C26.39 42.2713 26.2904 43.0238 26.1732 43.718ZM27.8904 41.7287C27.275 42.2946 26.771 43.053 26.349 43.7647C26.5308 42.9714 27.1168 42.0962 27.8904 41.7287ZM28.6992 42.4987C27.955 42.8313 27.193 43.2864 26.5717 43.8055C26.9996 43.123 27.8787 42.5862 28.6992 42.4987ZM28.6289 43.5197C27.9667 43.6071 27.2574 43.7472 26.6128 43.9163C27.152 43.5196 27.9783 43.3564 28.6289 43.5197ZM26.3783 41.4662C26.3783 41.4662 26.0032 41.4778 25.9445 41.7171C25.7805 42.4171 25.8157 43.9572 25.9445 44.1147C26.0501 44.2372 27.1695 44.2898 28.166 44.1614C28.5645 44.109 28.7696 43.6188 28.7696 43.5839C28.7696 43.5839 29.1858 43.3155 28.9981 42.9597C28.9981 42.9597 29.2443 42.5513 28.8517 42.2887C28.8517 42.2887 28.963 41.8162 28.3827 41.7346C28.3827 41.7346 28.2656 41.2154 27.7322 41.3903C27.7322 41.3903 27.5447 40.9703 27.0523 41.2504C27.0523 41.2561 26.6537 40.9586 26.3783 41.4662Z" fill="#FBF8F7"/>
<path d="M34.2612 40.1945C34.4781 39.5178 35.0174 39.617 35.0174 39.617L34.7535 40.2937L34.2612 40.1945ZM34.1616 40.9703L34.5777 41.0812C34.5777 41.0812 34.2965 41.5187 34.3141 41.6471C34.3315 41.7754 34.8532 42.2421 34.8532 42.2421C34.8532 42.2421 35.75 42.1837 35.9199 42.1546C36.0899 42.1254 35.4568 41.5187 35.4568 41.5187L35.2108 41.4312L35.2869 41.2737L35.75 41.5012L35.9844 40.7661L35.6445 40.5387L36.0137 39.5178C36.0137 39.5178 34.9353 38.6193 34.6247 38.5201L33.7983 38.9986L33.2297 40.5678L32.4737 40.4337C32.4737 40.4337 32.3506 41.2737 32.5675 41.5712L33.9038 41.4837L34.1616 40.9703Z" fill="#FBF8F7"/>
<path d="M31.5711 44.2606C30.27 43.7122 29.8656 44.4998 28.6992 44.2081C29.5197 43.5372 29.9887 42.0496 31.5711 44.2606Z" fill="#FBF8F7"/>
<path d="M36.0139 27.1736C37.1098 27.6344 37.4498 26.9694 38.4285 27.2144C37.737 27.7803 37.3443 29.0345 36.0139 27.1736Z" fill="#FBF8F7"/>
<path d="M33.9272 32.7914C33.5462 32.844 33.2649 32.774 33.2297 32.4824C33.2356 32.4532 33.2356 32.4298 33.2297 32.4064C33.3998 32.0565 33.8804 32.1732 33.9272 32.7914ZM32.503 32.3657C32.4737 32.6515 32.673 33.0482 33.3059 33.264C33.4818 33.3282 33.6694 33.3632 33.8628 33.3807C33.7866 33.6782 33.6341 34.0282 33.3881 34.4424C33.6635 34.1682 34.1558 34.1624 34.6598 34.3315C34.8415 33.9465 34.9119 33.6081 34.8943 33.3106C35.7793 33.1357 36.5119 32.7331 36.5119 32.7331C36.131 32.3423 36.4475 32.0097 36.3185 31.8755C35.9727 32.0565 35.2987 32.3889 34.6716 32.6048C34.1793 31.8464 33.0129 31.6598 32.5967 32.144C32.5147 32.2314 32.4912 32.3014 32.503 32.3657Z" fill="#FBF8F7"/>
<path d="M27.3336 23.8717C27.5679 25.2776 30.0121 25.7851 27.3921 26.7127C28.1424 25.4759 26.0617 24.8984 27.3336 23.8717Z" fill="#FBF8F7"/>
<path d="M29.6134 34.104C29.7776 35.0782 31.4714 35.4283 29.6545 36.0699C30.1762 35.2183 28.7343 34.8157 29.6134 34.104Z" fill="#FBF8F7"/>
<path d="M21.1034 28.2528C21.0212 28.6086 20.9803 28.9411 21.203 29.3203C21.4256 29.6937 22.1759 30.2305 21.959 30.843C21.0564 30.4812 20.4645 30.137 20.066 29.8104C20.6168 30.0729 21.1326 30.1604 21.3436 30.1255C21.2381 29.7637 20.6931 29.2037 19.8959 29.087C20.9157 29.4603 20.9627 29.9271 20.9627 29.9271C20.4586 29.8979 19.9722 29.6295 19.7319 29.4837C19.6732 29.4137 19.6205 29.3436 19.5735 29.2737C19.2396 28.7662 18.9172 27.3194 19.1399 27.3252C20.0425 27.3603 20.8337 27.0627 21.414 27.7918C21.7656 28.2353 21.8829 28.7369 22.2228 29.1395C21.8067 29.262 21.3612 29.0461 21.1034 28.2528Z" fill="#FBF8F7"/>
<path d="M24.3913 30.5105L23.8931 29.6879C23.8052 29.5478 23.8698 29.3495 24.0339 29.2503C24.1979 29.1511 24.403 29.1862 24.4909 29.3261L24.9892 30.1487C25.0771 30.2888 25.0126 30.4871 24.8427 30.5863C24.6786 30.6854 24.4735 30.6504 24.3913 30.5105Z" fill="#FBF8F7"/>
<path d="M39.0849 31.1872L38.3934 30.5105C38.2761 30.3938 38.2879 30.1896 38.4226 30.0496C38.5574 29.9155 38.7626 29.898 38.8857 30.0147L39.5714 30.6913C39.6886 30.808 39.6769 31.0122 39.5422 31.1523C39.4073 31.2863 39.2022 31.3039 39.0849 31.1872Z" fill="#FBF8F7"/>
<path d="M41.2066 28.4803L40.7084 27.6578C40.6205 27.5177 40.6849 27.3194 40.8491 27.2202C41.0132 27.121 41.2183 27.1561 41.3062 27.296L41.8045 28.1186C41.8924 28.2586 41.8278 28.457 41.6638 28.5561C41.4996 28.6553 41.2944 28.6203 41.2066 28.4803Z" fill="#FBF8F7"/>
<path d="M22.1583 30.8896C22.1583 30.8896 22.3634 30.7554 22.9085 30.6038C22.6975 30.4288 22.3634 30.4812 22.1583 30.1954C22.5803 30.1545 23.1371 30.2537 23.6646 31.1113C23.6294 30.9888 23.5591 30.8372 23.4652 30.6737C23.1605 30.1662 22.4454 29.9504 22.5861 29.6004C23.4887 29.9213 23.688 30.6155 24.3269 31.0355C24.8074 31.3097 25.8742 31.7297 25.7628 32.4997C25.2294 32.0972 24.8016 31.9105 23.9577 31.928C23.7584 31.9339 23.7584 31.5489 22.8792 31.5022C23.0608 31.1113 23.4887 31.4556 23.6588 31.3621C23.6938 31.3389 23.7056 31.2804 23.688 31.193C23.3715 31.0121 22.885 31.3679 22.592 31.1813C22.7093 31.0297 23.055 30.9888 23.1547 30.8838C22.8909 30.7612 22.4806 31.1813 22.1583 30.8896Z" fill="#FBF8F7"/>
<path d="M24.7372 34.1741C24.7783 34.1858 24.8309 34.1916 24.8779 34.1799C24.9012 34.1741 24.9247 34.1682 24.9482 34.1565C25.0596 34.6 25.253 35.335 25.4111 35.7725C25.253 35.7084 25.0419 35.6675 24.8075 35.6733C24.6082 35.6791 24.4324 35.7142 24.2917 35.7666C24.45 35.335 24.6317 34.6175 24.7372 34.1741ZM27.9841 33.6081C28.0017 33.6081 28.0194 33.6081 28.037 33.6081C28.0722 33.6024 28.1014 33.5849 28.1307 33.5674C28.2304 33.9757 28.4531 34.8449 28.6289 35.3407C28.4707 35.2766 28.2597 35.2359 28.0252 35.2416C27.826 35.2474 27.6502 35.2825 27.5094 35.335C27.6852 34.8507 27.8845 34.0223 27.9841 33.6081ZM23.9987 36.0992C24.0221 36.3209 24.4207 36.4959 24.8955 36.49C25.3702 36.4842 25.7335 36.2917 25.716 36.07C25.7102 36.0351 25.6984 36.0059 25.6808 35.9767C25.6632 35.5917 25.2764 34.6874 25.0419 34.1682C25.4111 34.1974 25.7453 33.7131 26.0676 33.5557C26.1379 33.6315 26.2201 33.6782 26.3021 33.6957C26.1673 34.4541 25.9504 35.4983 26.226 36.0933C26.0735 36.1401 25.968 36.2393 25.968 36.3443C25.968 36.4025 25.9973 36.4551 26.05 36.5017C25.3526 36.5717 24.8309 36.8167 24.8251 37.1026C24.8192 37.4293 25.4992 37.6859 26.3431 37.6685C27.1871 37.6568 27.8728 37.3769 27.8786 37.0501C27.8845 36.7934 27.4625 36.5834 26.8706 36.5076C26.9293 36.4608 26.9643 36.4025 26.9643 36.3384C26.9643 36.21 26.8179 36.0992 26.6186 36.0641C26.7359 35.8192 26.9761 35.0608 26.519 33.6549C26.5951 33.6081 26.6596 33.5382 26.6948 33.4448C27.0757 33.5031 27.5564 33.8882 27.9021 33.5907C27.908 33.5907 27.9139 33.5966 27.9256 33.5966C27.7146 34.0632 27.275 35.0783 27.2516 35.51C27.2223 35.5566 27.2047 35.6033 27.2105 35.6558C27.234 35.8775 27.6326 36.0525 28.1073 36.0468C28.5821 36.0351 28.9454 35.8483 28.9278 35.6209C28.9278 35.5858 28.9161 35.5566 28.8927 35.5275C28.8751 35.0841 28.3769 33.9757 28.1659 33.5323C28.2128 33.4857 28.2362 33.4215 28.2245 33.3573C28.2069 33.2407 28.1014 33.1649 27.9783 33.1882C27.8612 33.2114 27.7731 33.3223 27.7907 33.4332C27.7966 33.474 27.8142 33.5148 27.8436 33.544C27.5271 33.614 27.1636 33.1707 26.7359 33.1064C26.7359 33.0832 26.73 33.0657 26.7241 33.0423C26.6537 32.7448 26.4193 32.5465 26.1907 32.6047C25.968 32.6632 25.839 32.949 25.9094 33.2465V33.2523C25.5812 33.4332 25.3585 33.8474 25.1122 34.0049C25.1357 33.9582 25.1416 33.9115 25.1416 33.859C25.124 33.7131 24.9717 33.6198 24.8075 33.649C24.6434 33.6782 24.5262 33.8181 24.5438 33.9641C24.5555 34.0399 24.5965 34.0983 24.661 34.139C24.4383 34.6407 24.0573 35.5449 24.0339 35.9476C24.0045 36 23.9928 36.0468 23.9987 36.0992Z" fill="#FBF8F7"/>
<path d="M32.9602 36.91C33.0011 36.8167 32.8664 36.6825 32.6613 36.6008C32.4562 36.5192 32.2628 36.525 32.2217 36.6183C32.2041 36.6708 32.2334 36.735 32.3037 36.7992C32.2452 36.8284 32.1631 36.8634 32.1044 36.9334C31.9169 37.1376 31.7529 37.4817 31.7587 37.6217C31.7703 37.8551 32.3272 38.0885 32.5499 37.9893C32.7257 37.8785 32.8077 37.3359 32.8077 37.3359C32.8136 37.3125 32.8136 37.2892 32.8136 37.2659C32.8195 37.1726 32.7727 37.0676 32.7316 36.9858C32.843 36.9917 32.9309 36.9684 32.9602 36.91Z" fill="#FBF8F7"/>
<path d="M39.0323 37.0792C38.704 37.1201 38.4285 37.0676 38.4169 36.9626C38.4051 36.8576 38.6571 36.7409 38.9853 36.7059C39.3136 36.665 39.589 36.7175 39.6007 36.8226C39.6125 36.9217 39.3604 37.0384 39.0323 37.0792ZM36.887 36.1459C37.309 36.77 38.2996 37.4817 38.7626 37.4992C39.4249 37.5226 40.14 37.0909 39.9407 36.8226C39.7883 36.6184 38.8739 36.4958 38.4169 36.7817C37.8307 37.1493 37.5494 34.8041 36.887 34.8041C36.5354 34.8041 36.4006 35.4342 36.887 36.1459Z" fill="#FBF8F7"/>
<path d="M29.508 28.7311C29.6134 27.9202 30.1117 26.8993 30.4165 26.8294C30.8091 26.7127 32.0223 26.4444 32.251 25.3709C32.9132 27.4885 31.6882 27.401 31.2018 27.5528C30.8209 27.6169 30.5923 27.9377 30.5453 27.8912C30.393 27.7394 30.7036 27.4769 30.7681 27.4361C30.9205 27.3427 31.067 27.2786 31.0728 27.2027C30.1761 27.191 29.9945 28.6962 29.508 28.7311Z" fill="#FBF8F7"/>
<path d="M30.7975 26.316C30.9674 24.6592 29.5608 24.3558 29.1505 23.5391C30.2641 23.6266 33.6518 24.4025 30.7975 26.316Z" fill="#FBF8F7"/>
<path d="M38.8154 32.2139C38.8563 32.5523 39.6242 33.0073 39.9231 33.2757C40.0403 32.7914 40.8433 31.7531 40.4154 31.4671C40.0871 31.2456 39.6886 31.5722 39.7121 32.0039C39.3018 31.5838 38.7802 31.9106 38.8154 32.2139Z" fill="#FBF8F7"/>
<path d="M41.488 30.8838C41.5583 30.9538 41.4763 31.1347 41.318 31.2805C41.1598 31.4264 40.9722 31.4905 40.9018 31.4147C40.8374 31.3447 40.9136 31.1638 41.0777 31.018C41.2359 30.8721 41.4235 30.808 41.488 30.8838ZM42.748 30.8546C42.9649 30.703 43.0177 30.3996 42.8594 30.1838C42.7071 29.9679 42.4023 29.9155 42.1855 30.0729L40.9312 30.9655C40.7143 31.123 40.6675 31.4205 40.8198 31.6364C40.9722 31.8523 41.277 31.9047 41.4939 31.7473L42.748 30.8546Z" fill="#FBF8F7"/>
<path d="M42.8067 29.3029C42.7832 29.2912 42.7539 28.562 42.4902 28.0311C42.2733 27.5935 41.8219 27.3369 41.8278 27.3252C41.9216 27.2144 42.5311 27.2085 42.7363 27.296C42.9942 27.4127 42.9414 29.3495 42.8067 29.3029Z" fill="#FBF8F7"/>
<path d="M22.7796 36.9917C22.5686 36.9276 22.3928 36.8284 22.2462 36.7234C21.7422 36.1925 21.6543 35.3583 21.4668 34.5474C21.4961 34.0574 21.8242 33.824 22.0293 33.7307C22.4631 35.2825 24.5965 33.2523 24.62 32.459C23.313 32.0797 20.7458 32.383 21.9532 33.6024C21.5664 33.6841 21.4023 33.8883 21.3495 34.0983C21.2089 33.6373 21.0154 33.2173 20.6579 32.9432C21.959 32.5582 21.8653 31.7997 21.6191 31.4847C21.1796 30.9189 20.2945 31.0005 19.2513 29.6412C19.0813 30.3238 18.9407 32.2665 19.1165 32.8206C19.2805 33.3574 20.1598 33.5382 20.5759 33.0073C21.033 33.614 21.1502 34.4424 21.2557 35.2242C21.033 35.0724 20.7282 35.1309 20.529 34.985C21.2499 34.6816 20.9744 34.0399 20.7634 33.8941C20.3708 33.6198 20.0073 34.2207 19.0754 33.5557C19.0989 34.0223 18.8 36.2451 20.4117 35.0316C20.6462 35.3292 21.0447 35.405 21.3086 35.615C21.3319 35.7725 21.3554 35.9301 21.3906 36.0817C21.1796 35.9767 20.9803 36.1109 20.7517 36.3443C20.359 35.0316 18.9699 35.9825 19.0521 37.4643C19.6264 37.4176 20.4704 37.5577 20.8337 37.4176C21.1855 37.2776 21.1972 36.7293 20.8161 36.49C20.9979 36.2917 21.2499 36.2859 21.4726 36.4318C21.6601 37.0501 22.0001 37.4817 22.7972 37.4702C23.6647 37.5226 24.0104 37.1143 24.5321 37.4293C23.9166 37.056 23.7115 37.0734 23.2836 37.056C23.2368 37.0443 22.9789 37.0151 22.7796 36.9917ZM23.4946 32.9315C23.1548 33.2816 22.5862 33.2989 22.1701 33.544C22.3693 33.0248 22.9965 33.0657 23.4946 32.9315ZM20.5759 32.5872C20.3414 31.9047 19.7495 31.969 19.7026 31.2397C20.1422 31.8755 20.8572 31.7997 20.5759 32.5872ZM19.515 34.1041C19.9194 34.4249 20.359 34.2382 20.3356 34.7925C20.0484 34.4016 19.6849 34.5591 19.515 34.1041ZM19.6908 37.1493C20.0893 36.8284 20.0015 36.356 20.5466 36.5017C20.1011 36.6884 20.1774 37.0792 19.6908 37.1493Z" fill="#FBF8F7"/>
<path d="M30.5044 40.2003C30.311 41.1628 29.9535 40.982 29.9535 40.982C30.2231 40.317 30.27 40.0544 30.27 40.0544L30.5044 40.2003ZM29.3322 41.0695C29.4026 41.0987 29.4846 41.0753 29.5608 41.017C29.6077 41.0287 29.6604 41.0462 29.7248 41.0636C29.6252 41.2912 29.5197 41.5012 29.4318 41.682C29.3263 41.9212 29.5901 42.277 30.0237 42.4755C30.4575 42.668 30.8912 42.633 31.0026 42.3879C31.0026 42.3879 31.0905 42.0029 31.2839 41.5712C31.3309 41.5887 31.3835 41.612 31.4246 41.6296C31.4364 41.7463 31.5008 41.8454 31.5945 41.8803C31.747 41.9388 31.9287 41.8162 32.0048 41.612C32.081 41.4079 32.0166 41.1978 31.8642 41.1396C31.7411 41.0928 31.6004 41.1628 31.5125 41.297C31.4832 41.297 31.454 41.2912 31.4246 41.2912C31.5711 41.0229 31.7587 40.7661 31.9872 40.5911C32.0986 40.5853 32.1806 40.5561 32.21 40.492C32.2569 40.387 32.1279 40.212 31.8876 40.0312C31.9404 40.0953 31.9639 40.1536 31.9463 40.1945C31.8934 40.317 31.5184 40.2703 31.114 40.0836C30.7037 39.9028 30.4224 39.6519 30.4751 39.5293C30.4927 39.4827 30.5571 39.4594 30.6509 39.4594C30.3403 39.3894 30.1118 39.4069 30.0648 39.5178C30.0413 39.5702 30.0648 39.6402 30.1176 39.7218C30.0942 40.0836 29.9887 40.4452 29.8597 40.7778C29.8303 40.7603 29.7953 40.7427 29.7659 40.7312C29.8362 40.5095 29.7835 40.2995 29.6487 40.2469C29.5081 40.1945 29.3263 40.3345 29.2443 40.5619C29.1446 40.7895 29.1916 41.017 29.3322 41.0695Z" fill="#FBF8F7"/>
<path d="M31.6591 40.0078L31.6766 40.1361C31.6766 40.1361 31.2898 40.1536 30.9323 39.8736C30.9323 39.8736 31.1316 39.6811 31.4364 39.7861C31.4364 39.7861 32.1103 38.1234 32.6261 38.5377C33.1771 38.9752 31.6591 40.0078 31.6591 40.0078Z" fill="#FBF8F7"/>
<path d="M29.8071 38.9635C29.7484 39.0102 29.5902 38.9226 29.4554 38.771C29.3205 38.6134 29.262 38.4501 29.3205 38.4034C29.3792 38.3568 29.5374 38.4443 29.6722 38.596C29.8071 38.7535 29.8656 38.9168 29.8071 38.9635ZM28.8106 37.1668C28.6407 37.7618 28.4766 38.736 29.1741 39.3485C29.5961 39.7218 30.4869 39.051 30.0181 38.4969C29.5433 37.9309 29.0744 37.9134 28.8106 37.1668Z" fill="#FBF8F7"/>
<path d="M35.498 31.4846C35.5391 31.6247 34.9354 31.8289 34.8533 31.6597C34.7712 31.4846 35.4453 31.3038 35.498 31.4846ZM34.2731 31.1405C33.9213 31.613 34.824 32.4239 35.5566 31.7472C35.8731 31.4556 35.9668 30.808 35.5742 30.067C35.158 30.9013 34.4958 30.843 34.2731 31.1405Z" fill="#FBF8F7"/>
<path d="M37.3852 30.4696C37.6196 31.0297 37.6079 31.4671 37.4438 31.9747C37.0629 31.0588 37.3852 30.4696 37.3852 30.4696ZM37.2621 32.6922C39.7296 31.9047 37.3324 30.1313 37.1273 29.0403C35.8203 30.4347 37.1625 32.1788 37.2621 32.6922Z" fill="#FBF8F7"/>
<path d="M42.0858 36.7875C41.6755 36.9451 41.2124 36.6301 41.2124 36.6301L41.2593 35.895C41.4175 36.0641 42.2089 36.1867 42.2089 36.1867L42.0858 36.7875ZM41.5935 35.23C41.3003 35.2824 41.0307 35.4342 40.8841 35.5975C40.6674 35.8309 40.556 36.8401 40.7612 37.3126C40.9194 37.6859 42.5605 37.546 42.6836 37.4351C42.8067 37.3243 42.9063 36.2392 42.6836 35.8017C42.5898 35.6208 42.4784 35.4866 42.3553 35.3933C42.3612 35.3 42.3905 35.1716 42.4549 35.0315C42.537 35.02 42.6249 34.9966 42.707 34.9616L42.7773 34.3665C42.7773 34.3665 42.4256 33.9757 41.5465 34.2265C41.5465 34.2265 41.4704 34.5008 41.4704 34.8507C41.4704 34.8507 41.5289 34.8858 41.6344 34.9267C41.652 34.9849 41.6637 35.0841 41.5935 35.23Z" fill="#FBF8F7"/>
<path d="M41.066 33.474C40.9956 33.4098 41.019 33.264 41.1245 33.1415C41.2242 33.0189 41.3708 32.9665 41.4469 33.0306C41.5172 33.089 41.4939 33.2406 41.3941 33.3632C41.2829 33.4857 41.1421 33.5382 41.066 33.474ZM40.7201 33.7131C40.597 33.824 40.6205 34.0574 40.5678 34.1215C40.4036 34.3374 40.1691 34.5532 40.3216 34.6874C40.4739 34.8158 40.6498 34.5532 40.8315 34.3549C40.8901 34.2966 41.1187 34.2849 41.2066 34.1507C41.2535 34.0749 41.277 33.9757 41.2887 33.8824C41.4293 33.9582 41.5935 33.9582 41.6755 33.8649L42.748 32.7214C42.9356 32.103 42.1737 31.5897 41.7223 32.1206L40.9077 33.229C40.8256 33.3223 40.8491 33.4799 40.9546 33.6081C40.8726 33.6198 40.7846 33.6548 40.7201 33.7131Z" fill="#FBF8F7"/>
<path d="M30.9323 36.8401C30.9264 36.5833 30.9147 36.315 30.9088 36.0409C30.3228 36.2975 29.7718 36.5601 29.7659 37.0908C29.7542 38.2109 30.8151 38.4618 30.8151 38.4618C30.8151 38.4618 30.1644 38.0243 30.3461 37.3476C30.3989 37.1376 30.6275 36.9858 30.9323 36.8401Z" fill="#FBF8F7"/>
<path d="M31.9052 29.3203C31.9639 29.2211 32.0927 29.1862 32.1923 29.2445C32.292 29.3029 32.333 29.4312 32.2745 29.5303C32.2217 29.6295 32.0927 29.6645 31.9872 29.6063C31.8876 29.5479 31.8525 29.4196 31.9052 29.3203ZM27.3512 31.4439C27.3101 34.1332 31.9345 33.5265 32.0341 34.6933C32.0576 34.9849 31.9228 35.2008 31.7 35.3758C31.6883 35.6791 31.6766 35.9825 31.6648 36.28C32.3506 35.9591 33.007 35.51 33.007 34.6349C33.007 32.8849 28.7226 33.4039 28.6817 31.4322C28.6523 29.9737 30.522 29.5071 31.5477 29.933C31.9813 30.1138 32.122 30.6272 32.2802 30.5688C32.2802 30.3879 32.2978 30.2247 32.3096 30.0729C32.6437 30.1954 32.9543 30.2537 32.9953 30.1721C33.1771 29.8104 32.2569 28.7603 31.6121 29.1337C30.1586 28.7194 27.3922 29.052 27.3512 31.4439Z" fill="#FBF8F7"/>
<path d="M33.5345 30.8138C32.0751 31.0355 30.3402 31.018 28.9571 30.7671C29.1446 31.4205 29.9241 31.9281 30.903 32.0331C30.903 32.1905 30.903 32.4997 30.9088 32.8964C31.067 32.9606 31.2312 33.0189 31.3894 33.0832C31.4481 33.1064 31.5066 33.1298 31.5652 33.159C31.5769 32.5756 31.5886 32.1556 31.5886 32.0389C32.5616 31.9456 33.3352 31.4556 33.5345 30.8138Z" fill="#FBF8F7"/>
<path d="M30.9264 34.7457C30.9556 36.6708 31.026 38.8644 31.1901 38.8527C31.3541 38.8352 31.4655 36.6476 31.5242 34.7515C31.5301 34.6348 31.53 34.524 31.5359 34.4133C31.4714 34.3724 31.3893 34.3315 31.2897 34.2907C31.1783 34.244 31.0552 34.1916 30.9146 34.1448C30.9205 34.3373 30.9205 34.5415 30.9264 34.7457Z" fill="#FBF8F7"/>
<path d="M40.1868 28.3695C40.3802 28.0428 40.5503 27.6812 40.3276 27.3428C40.1342 27.0511 39.5714 27.2085 39.5714 27.2085C39.5714 27.2085 39.0206 27.016 38.8096 27.296C38.5634 27.6169 38.7158 27.9903 38.8857 28.3286C38.9619 28.4804 38.8975 28.7428 38.8388 28.9178C38.6395 29.4954 38.8857 29.7988 38.9971 29.6646C39.1846 29.437 39.2667 28.8654 39.5187 28.8537C39.7707 28.877 39.8176 29.4545 39.9876 29.6938C40.0931 29.8337 40.351 29.5479 40.1868 28.9587C40.1518 28.7779 40.0989 28.5153 40.1868 28.3695ZM39.1905 28.1478C38.8154 28.0778 38.7568 27.4302 39.2081 27.3369C39.2022 27.3369 38.9327 27.6519 39.1905 28.1478Z" fill="#FBF8F7"/>
<path d="M26.601 30.5862L26.1204 30.2305L26.7299 29.4137L27.2105 29.7695L26.601 30.5862ZM27.949 28.2644C27.8845 28.2177 27.8024 28.2294 27.7556 28.2937L27.609 28.492L27.1812 28.5328L25.9855 30.1313L25.9797 30.137L25.8214 30.0204C25.7511 29.9679 25.6456 29.9854 25.5929 30.0553C25.5401 30.1254 25.5577 30.2305 25.628 30.2829L25.7687 30.3879L25.7628 30.3937L25.5518 30.6737C25.3936 30.8838 25.4404 31.1871 25.6514 31.3447C25.8624 31.5021 26.1672 31.4555 26.3255 31.2455L26.5365 30.9654L26.5423 30.9537L26.6712 31.0472C26.7417 31.0996 26.847 31.0821 26.8999 31.0121C26.9525 30.9422 26.9351 30.8372 26.8646 30.7846L26.7241 30.6796L27.9197 29.0753L27.8318 28.6494L27.9724 28.4569C28.0193 28.3987 28.0076 28.311 27.949 28.2644Z" fill="#FBF8F7"/>
<path d="M49.5175 38.9052H53.2628C53.2628 40.5619 54.6342 41.3611 56.1522 41.3611C57.5472 41.3611 58.9186 40.6262 58.9186 39.3485C58.9186 38.0184 57.3538 37.6568 55.4899 37.2192C52.8993 36.5833 49.7579 35.8308 49.7579 32.1381C49.7579 28.8478 52.1843 26.9985 55.9822 26.9985C59.9268 26.9985 62.1715 29.1046 62.1715 32.5172H58.5026C58.5026 31.0414 57.2833 30.347 55.8943 30.347C54.6929 30.347 53.4738 30.8546 53.4738 31.9805C53.4738 33.1882 54.9624 33.5498 56.7793 33.9874C59.3934 34.6465 62.6814 35.4632 62.6814 39.3019C62.6814 43.0063 59.7275 44.8031 56.1756 44.8031C52.2312 44.7973 49.5175 42.5862 49.5175 38.9052ZM55.6657 22.1915H59.4754L57.0138 25.6684H54.3059L55.6657 22.1915Z" fill="#FBF8F7"/>
<path d="M88.3526 27.3136L83.0601 44.4531H79.7545L75.9215 34.8449L72.1997 44.4531H68.894L63.4785 27.3136H67.417L70.7872 38.7011L75.2943 27.4828H76.5485L81.1787 38.6953L84.4726 27.3077H88.3526V27.3136Z" fill="#FBF8F7"/>
<path d="M90.6738 27.3135H94.3896V44.453H90.6738V27.3135Z" fill="#FBF8F7"/>
<path d="M108.526 41.2096H101.698L100.52 44.4589H96.5817L103.31 27.3194H106.815L113.76 44.4589H109.728L108.526 41.2096ZM102.853 37.9719H107.36L105.098 31.8406L102.853 37.9719Z" fill="#FBF8F7"/>
<path d="M126.121 30.7554H121.35V44.453H117.634V30.7554H112.863V27.3135H126.121V30.7554Z" fill="#FBF8F7"/>
<path d="M145.392 41.017V44.4589H132.41V43.9048L139.573 30.7554H132.82V27.3135H145.106V27.996L138.007 41.017H145.392Z" fill="#FBF8F7"/>
<path d="M163.239 35.8657C163.239 40.8362 159.565 44.4589 154.535 44.4589H148.042V27.3135H154.535C159.581 27.3135 163.239 30.913 163.239 35.8657ZM159.435 35.8657C159.435 32.8498 157.389 30.7554 154.441 30.7554H151.758V41.0112H154.441C157.389 41.017 159.435 38.8643 159.435 35.8657Z" fill="#FBF8F7"/>
<path d="M172.306 38.6076H169.927V44.4589H166.21V27.3135H173.138C176.579 27.3135 179.139 29.6762 179.139 32.984C179.139 35.2241 177.91 37.0618 176.01 37.9718L179.808 44.4589H175.659L172.306 38.6076ZM169.927 35.1832H172.898C174.451 35.1832 175.377 34.2498 175.377 32.9665C175.377 31.683 174.451 30.7495 172.898 30.7495H169.927V35.1832Z" fill="#FBF8F7"/>
<path d="M181.262 35.8833C181.262 30.7963 185.183 26.9402 190.423 26.9402C195.639 26.9402 199.543 30.7788 199.543 35.8833C199.543 40.9878 195.639 44.8264 190.423 44.8264C185.183 44.8322 181.262 40.9761 181.262 35.8833ZM195.78 35.8833C195.78 32.774 193.483 30.4405 190.423 30.4405C187.363 30.4405 185.025 32.7972 185.025 35.8833C185.025 38.9694 187.363 41.3262 190.423 41.3262C193.483 41.3262 195.78 38.9986 195.78 35.8833Z" fill="#FBF8F7"/>
<path d="M225.225 27.3136L219.933 44.4531H216.628L212.794 34.8449L209.072 44.4531H205.766L200.35 27.3136H204.289L207.659 38.7011L212.167 27.4828H213.422L218.051 38.6953L221.346 27.3077H225.225V27.3136Z" fill="#FBF8F7"/>
<path d="M227.546 27.3135H231.261V44.453H227.546V27.3135Z" fill="#FBF8F7"/>
<path d="M245.399 41.2095H238.57L237.392 44.4589H233.455L240.177 27.3135H243.682L250.627 44.453H246.594L245.399 41.2095ZM239.725 37.9718H244.233L241.97 31.8405L239.725 37.9718Z" fill="#FBF8F7"/>
</svg>
